<svg xmlns="http://www.w3.org/2000/svg" data-name="Layer 1" width="414.00374" height="522.32564" viewBox="0 0 414.00374 522.32564" xmlns:xlink="http://www.w3.org/1999/xlink"><path d="M795.4133,319.43686c-1.38965,5.48828-6.082,9.72265-11.38184,11.71387-5.30078,1.99121-11.14453,2.01367-16.76855,1.35791-7.04883-.82178-14.09961-2.72706-20.03223-6.62305-5.93164-3.896-10.65625-9.96143-11.8916-16.9502-1.23437-6.98925,1.48047-14.79492,7.41309-18.69043l-3.708-1.25537c-9.041-3.811-20.10547-.25732-26.69727,7.01074-6.59179,7.26856-9.14648,17.52442-8.76757,27.32911s3.41894,19.30273,6.83886,28.5c2.2461,6.04394,4.999,12.42871,10.49121,15.8081,4.87012,2.99707,10.96094,3.02735,16.66309,2.6001,14.38477-1.07715,29.01367-4.68848,40.5332-13.37012C789.62521,348.18637,797.47189,333.71371,795.4133,319.43686Z" transform="translate(-393.4063 -233.2404)" fill="#a0fff0"/><path d="M510.81126,234.7916c-4.34057,3.32542-6.87178,8.44266-10.0408,12.80355A215.64934,215.64934,0,0,0,487.57565,269.997a315.56054,315.56054,0,0,0-21.69284,55.57868c-8.2704,5.5227-16.562,11.59527-21.07673,20.7236a69.48125,69.48125,0,0,0-5.54051,45.47582,77.73594,77.73594,0,0,0,14.781,34.81056c5.2561,7.2828,12.12789,13.13331,19.53341,18.13785-1.91956-2.03588-3.76677-4.13993-5.59839-6.25512-7.21351-7.82655-13.51816-21.22895-15.65589-27.27759-4.325-13.84625-4.78915-22.3582-5.81989-31.92121-.7085-13.02115.86266-21.293,4.1775-31.9315,2.32751-6.93745,8.73346-14.47182,15.03589-21.19973-.08182.29108-.17309.57937-.25379.871.246-.46918.502-.93307.74968-1.40169.21427-.22763.42966-.46277.64337-.68818-.143.09518-.28662.19369-.43021.28913a811.89288,811.89288,0,0,1,46.27865-76.71608c-.04007,24.162-2.51619,50.09913-2.19171,74.73113,2.85067-15.57268,5.40025-31.19657,7.83907-46.83854,1.64573-11.26913,3.8163-22.60587,3.53023-34.03445C522.32638,235.80509,516.89608,230.497,510.81126,234.7916Z" transform="translate(-393.4063 -233.2404)"/><path d="M639.10384,288.78856c-1.24835-10.48327-1.20995-21.448-4.881-31.44368-1.59342-4.81031-6.94915-8.23869-11.66428-5.28115-2.89687,1.84386-4.43018,5.026-5.97851,7.97348-2.42825,4.65419-4.71848,9.37851-6.98031,14.11507-6.2234,12.98442-12.82192,25.90095-17.34893,39.5627.04341-.42632.08793-.85375.13023-1.28063.58884-5.99521.58772-12.21443-1.68747-17.88489-8.84644-25.38-33.40554-24.553-53.79159-13.52957-8.17635,4.8885-14.71921,12.01685-21.27876,18.82073,10.63186-6.79247,21.03554-14.70334,33.73557-16.99829,17.31943-4.62609,30.53538-1.4451,38.69726,15.202,2.61637,4.84621,3.37439,10.42845,4.15023,15.81423a119.33734,119.33734,0,0,0-3.43672,12.45431c10.2445-20.00787,24.73163-37.36793,35.50541-57.06663.41575-.70182.81814-1.41171,1.22554-2.11881,3.43895,18.62511,6.73487,37.27721,11.01032,55.73925,1.57338,7.18234,3.07553,14.38055,4.69844,21.55176.01058-.67566.025-1.35188.03673-2.02809A454.9584,454.9584,0,0,0,639.10384,288.78856Z" transform="translate(-393.4063 -233.2404)"/><path d="M643.10714,338.85206c3.597,8.75823,5.4893,16.66715,5.48262,25.062.09573,7.6209.21205,11.05039-1.47709,17.38566-2.34032,8.8598-7.9348,16.37746-11.65649,21.05391.06568-.08348.31724-.41018.69792-.905-6.2579,7.65709-50.20092,50.874-49.05151,41.4106.77246-6.35791,39.07617,45.6294,26.32324,62.60938-1.77832,2.36767-4.80418,3.46574-7.30812,5.04413,8.98057-2.49893-29.29378-58.1335-21.03172-62.3622,20.44-11.01923,70.25033-45.83535,70.59651-70.74591C655.64911,363.63155,651.6113,349.795,643.10714,338.85206Z" transform="translate(-393.4063 -233.2404)"/><path d="M503.77975,334.61c-12.01936.298-11.98764,17.9066.00055,18.23719C515.80022,352.54916,515.7685,334.94032,503.77975,334.61Z" transform="translate(-393.4063 -233.2404)"/><path d="M590.16263,340.18306c-12.01936.29776-11.98819,17.9066,0,18.23719C602.18255,358.1225,602.15138,340.51366,590.16263,340.18306Z" transform="translate(-393.4063 -233.2404)"/><path d="M545.31544,377.96813a61.38888,61.38888,0,0,0-10.45544-.723c3.58421.98955,7.17956,1.983,10.68251,3.23024.00891-.0782.11187.00946.23153.10881-2.54179,2.97951-6.23675,6.48108-9.19039,9.58916a26.45981,26.45981,0,0,1-3.26642,2.92859c-1.61457-5.90755-2.2752-12.61459-3.7612-18.72139-.26381,5.72333-.39738,11.46336-.09072,17.18753-.03951,5.52046,2.9503,7.48455,7.30979,3.6087a72.75629,72.75629,0,0,0,10.67751-12.19134C549.71556,380.34128,548.64141,378.35911,545.31544,377.96813Z" transform="translate(-393.4063 -233.2404)"/><path d="M541.21085,409.724a26.0616,26.0616,0,0,1-12.7106-1.51995c-4.56821-1.84693-9.68128-6.19975-14.27063-9.4414,3.74339,4.53592,7.60811,9.45643,13.11411,11.89581a19.86091,19.86091,0,0,0,16.287-.78363,17.29028,17.29028,0,0,0,2.15387-1.3413A21.941,21.941,0,0,1,541.21085,409.724Z" transform="translate(-393.4063 -233.2404)"/><path d="M800.5857,293.73256a54.0928,54.0928,0,0,0-17.96059-18.62789c-7.85744-5.49807-17.73462-8.20543-27.097-5.28992-1.72254.23974-12.93267,4.6311-8.53589,3.49266,6.61188-1.26,13.79811-2.255,20.50682.38792,13.71352,6.63108,23.30129,20.58919,26.28387,36.05961a22.62773,22.62773,0,0,1-3.10669,15.32335,36.98365,36.98365,0,0,1-31.69914,17.36145c-12.65662-.57242-24.95426-4.11294-34.104-14.73006-3.45064-4.53036-8.803-16.57365-6.78218-24.04651,3.11616-14.05579,16.47959-20.69313,30.4981-19.37952-14.87616-4.919-31.58059,1.13871-37.78507,15.99316-4.30829,10.13264-1.79322,22.03429,2.80448,31.644,14.27229,26.246,54.49953,35.31146,77.52865,15.36175C808.38025,333.7355,812.5622,312.32261,800.5857,293.73256Z" transform="translate(-393.4063 -233.2404)"/><path d="M553.05233,456.07558q-18.52441,3.74561-37.04786,7.4917-15.96679,77.77076-31.93554,155.541C549.81307,663.7084,577.62947,485.31045,553.05233,456.07558Z" transform="translate(-393.4063 -233.2404)" fill="#a0fff0"/><path d="M436.20708,673.82016a41.57716,41.57716,0,0,1-10.74023-6.79736,33.19462,33.19462,0,0,1-7.72168-9.689,26.47229,26.47229,0,0,1-2.1416-5.65332,23.01288,23.01288,0,0,1-.63965-5.88818,26.71937,26.71937,0,0,1,2.9082-11.3628,41.58908,41.58908,0,0,1,6.91211-9.78564,67.47748,67.47748,0,0,1,9.24121-8.05322c6.67383-4.99659,14.19141-9.374,21.23438-15.2041a88.07975,88.07975,0,0,0,18.21094-20.46973,98.047,98.047,0,0,0,11.52929-24.92139,95.90579,95.90579,0,0,0,.53223-54.64209q-1.11621-3.189-2.22559-6.3623c-.80664-2.0791-1.6914-4.06153-2.55566-5.98682-1.73828-3.84619-3.44922-7.46142-4.77246-11.01416a48.50359,48.50359,0,0,1-1.66309-5.28271,29.17766,29.17766,0,0,1-.82031-5.14405,21.66524,21.66524,0,0,1,1.41113-9.76269,13.59592,13.59592,0,0,1,6.082-6.78955,26.31449,26.31449,0,0,1,10.13477-2.791,115.67746,115.67746,0,0,1,11.70117-.37842c4.00586-.019,10.36626,13.93423,14.35747,13.91518,31.93262-.20214,42.63394-16.232,74.6896-16.68174-31.37891-2.57861-47.03535-3.52543-82.23555-5.68559q-3.30028-.20067-6.6123-.40185c-2.1875-.1294-4.44922-.2793-6.80859-.35107a49.94632,49.94632,0,0,0-15.09473,1.44335,27.03114,27.03114,0,0,0-7.85156,3.59668,23.72111,23.72111,0,0,0-6.377,6.39649,26.53967,26.53967,0,0,0-3.57031,7.93262,33.86143,33.86143,0,0,0-1.14648,8.1538,39.17387,39.17387,0,0,0,.65722,7.96729,55.07725,55.07725,0,0,0,1.92286,7.32422c1.55566,4.6626,3.47168,8.89795,5.17382,12.93652.833,2.02588,1.70411,3.97217,2.3125,5.94336l.98438,2.95068a25.663,25.663,0,0,1,.89844,2.97706l.74414,3.02392a29.63569,29.63569,0,0,1,.67578,3.03906c.30664,2.05518.7334,4.09229.96191,6.15723a91.2928,91.2928,0,0,1-7.74023,48.36279,88.11189,88.11189,0,0,1-12.873,20.37256,54.12629,54.12629,0,0,1-4.002,4.398l-2.10645,2.08008c-.69238.70019-1.39746,1.38916-2.15332,2.03564-2.96972,2.63086-6.14648,5.11719-9.35254,7.627-6.40136,5.01758-13.001,10.147-18.24316,16.67138a47.40415,47.40415,0,0,0-6.48145,10.49463,37.7856,37.7856,0,0,0-2.0166,5.78516,32.87543,32.87543,0,0,0-.916,6.01269,26.94565,26.94565,0,0,0,1.97461,11.61866,27.2272,27.2272,0,0,0,2.67285,5.022,30.92768,30.92768,0,0,0,3.4414,4.31738,37.15355,37.15355,0,0,0,8.29493,6.54395A40.67522,40.67522,0,0,0,436.20708,673.82016Z" transform="translate(-393.4063 -233.2404)"/><path d="M486.462,641.26547c8.49707-12.76758,15.21582-26.853,17.66211-41.86963,1.72168-14.71093-.82422-28.83593-3.60645-42.83154-3.25,13.17822-6.32422,28.5166-8.97949,43.43848C488.93267,614.92807,486.76079,629.47641,486.462,641.26547Z" transform="translate(-393.4063 -233.2404)"/><path d="M666.4649,677.01108a13.49157,13.49157,0,0,0,7.05468-2.90332,10.54328,10.54328,0,0,0,3.51758-7.001,21.85143,21.85143,0,0,0-.7832-7.852,67.77176,67.77176,0,0,0-2.49219-7.32324q-5.4126-14.23242-11.01367-28.43164-11.21484-28.38722-23.40625-56.44971c-16.14551-36.09815-32.5918-68.70947-49.31641-102.51123,13.6709,34.44043,30.43653,74.60644,47.20215,113.0625,8.38184,19.228,16.76465,38.02881,24.76074,55.47217q3.01612,6.5332,5.918,12.814,1.46339,3.13038,2.89258,6.189c.9541,2.0498,1.93262,4.02392,2.72852,6.00341a29.04834,29.04834,0,0,1,1.7998,5.99707,12.69629,12.69629,0,0,1-.23535,5.90528,9.25076,9.25076,0,0,1-3.33887,4.66357A14.84864,14.84864,0,0,1,666.4649,677.01108Z" transform="translate(-393.4063 -233.2404)"/><path d="M550.48443,550.27084c-3.27637,14.60547-7.15918,28.0835-9.26953,41.8833-.71875,6.77246-1.00293,13.47412-1.3418,20.32032-.32813,6.8457-.7793,13.7998-1.75879,20.92675a102.27945,102.27945,0,0,0,9.84082-19.48877,109.39067,109.39067,0,0,0,5.80176-22.48535,96.88472,96.88472,0,0,0,.76269-22.30957A71.51755,71.51755,0,0,0,550.48443,550.27084Z" transform="translate(-393.4063 -233.2404)"/><path d="M668.05572,627.869a51.31262,51.31262,0,0,0,24.66211-6.24024,62.46475,62.46475,0,0,0,19.84863-16.89013,64.52682,64.52682,0,0,0,7.02637-11.2837,76.79,76.79,0,0,0,4.73046-12.45605,89.1545,89.1545,0,0,0,3.19629-26.41406,110.4721,110.4721,0,0,0-3.96679-26.29737,152.278,152.278,0,0,0-9.25293-24.69824,239.87959,239.87959,0,0,0-12.459-22.874c-2.23535-3.668-4.5664-7.38721-7.23535-11.05225a67.41708,67.41708,0,0,0-9.26172-10.4624,48.18328,48.18328,0,0,0-4.42285-3.45947c-.749-.54883-1.61133-1.04737-2.418-1.56153-.84668-.45947-1.66894-.9624-2.542-1.36328a39.00932,39.00932,0,0,0-5.32422-2.15625l-1.56445-.45312a18.03326,18.03326,0,0,0-2.24317-.51465l-2.23242-.42822c-.72949-.08838-1.44629-.12647-2.166-.1919l-1.07618-.08887c-.35351-.02-.68359.002-1.02636.001l-2.0293.02588c-.6416.05225-1.25293.14453-1.877.21436l-.92969.11181c-.2998.04785-.57324.12207-.86035.18115l-1.69922.37452-1.55762.49414-.77246.24756-.709.30127-1.40821.60253L645.709,452.8641l-2.9336,1.44239-.74511.37256-.31153.27246-.59765.54638q-.583.54713-1.09961,1.09864,4.38867,2.83593,8.76367,5.66308l1.07812.69873c.35059.23194.626.4585.94141.6875l1.82422,1.36133,3.5918,2.68164c.59668.4419,1.1914.88037,1.7041,1.332.68847.64942.82519.75782,1.13086,1.03565l1.68359,1.50732c1.12109,1.00733,2.13184,2.127,3.21094,3.1836a79.24829,79.24829,0,0,1,10.88867,14.46777,76.71932,76.71932,0,0,1,10.59375,34.70361,79.47935,79.47935,0,0,1-7.00586,36.53467,80.501,80.501,0,0,1-23.6582,30.44824,81.6131,81.6131,0,0,0,25.76074-27.03125,83.07783,83.07783,0,0,0,11.53027-37.75976,81.74207,81.74207,0,0,0-8.43652-40.16846,85.75061,85.75061,0,0,0-11.48047-17.5752c-1.17773-1.311-2.32519-2.65283-3.542-3.93261l-1.88281-1.86768-.47168-.46631-.23633-.23291-.11817-.1167.042.03516c.07129.0791.03613.04248.04492.05029v-.00146c.001-.00782.00976-.00684.00976-.00684.00586.002-.01953-.00537-.01269-.022a.03409.03409,0,0,1,.01074-.01074l.01172-.00391.54394.16455c.26563.07568.52247.18945.78418.28076a27.49582,27.49582,0,0,1,5.95313,3.05176,46.91661,46.91661,0,0,1,10.31836,10.17627c3.09277,4.01855,5.93945,8.5249,8.79785,13.09473a237.37529,237.37529,0,0,1,15.09082,27.731A127.58629,127.58629,0,0,1,716.834,545.078a92.16683,92.16683,0,0,1,.97363,28.92774,68.41523,68.41523,0,0,1-8.76074,26.04736A61.59832,61.59832,0,0,1,691.13775,619.119,51.60408,51.60408,0,0,1,668.05572,627.869Z" transform="translate(-393.4063 -233.2404)"/><path d="M473.52544,647.06625c-1.13965.64991-2.33007,1.35987-3.55957,2.12989-9.48047,5.87988-21.61035,14.93017-33.79,24.71-3.96972,3.18994-7.94043,6.45019-11.83007,9.70019-11.99024,10.03955-23.17969,20.02979-30.93946,27.48975a346.24343,346.24343,0,0,1,24.3291-28.6001c1.9209-2.02978,6.51075-6.57959,11.77051-11.73975,8.59961-8.41992,18.96973-18.41992,22.33985-21.49023l5.78027.06006,11.16016.10986Z" transform="translate(-393.4063 -233.2404)"/><path d="M685.52133,679.464c-14.38086-14.44287-31.917-25.46-50-34.67578-10.542-4.833-21.61523-8.313-32.76465-11.47461l-38.70117,7.71631c1.123.13867,2.23242.28711,3.3125.45606,16.19629,2.81787,32.01953,7.61084,47.64062,12.66943,15.95215,5.146,27.06055,11.33936,44.23536,21.67529,24.57324,14.96729,52.26953,45.73291,75.53222,75.647q1.59814,2.04418,3.19824,4.08838C723.8768,728.09144,707.16293,701.65247,685.52133,679.464Z" transform="translate(-393.4063 -233.2404)"/><path d="M560.64556,631.11606l-71.71973,14.30029-13.26953,2.6499-5.69043,1.12989-1.17968.23974-17.91993,3.57031c2.23926-1.29,4.5-2.52,6.75977-3.68017a135.58624,135.58624,0,0,1,22.08984-9.14014c.21-.06982.41992-.12988.62989-.18994C507.09576,631.6561,538.05572,628.326,560.64556,631.11606Z" transform="translate(-393.4063 -233.2404)"/><path d="M669.35064,630.972a79.12033,79.12033,0,0,1-22.60645,7.98438,96.84081,96.84081,0,0,1-11.19922,1.51416,28.41538,28.41538,0,0,1-9.36425-.53027,10.09782,10.09782,0,0,1-3.25391-1.22022,11.55317,11.55317,0,0,1-3.00488-2.80615,22.79294,22.79294,0,0,1-2.57129-4.27051,32.41356,32.41356,0,0,1-1.915-5.01123,33.31416,33.31416,0,0,1,1.915-23.63281,34.1324,34.1324,0,0,0-9.95508,25.42627,35.63634,35.63634,0,0,0,1.11035,7.5376,26.36209,26.36209,0,0,0,3.26953,7.55126,20.31467,20.31467,0,0,0,2.87012,3.5293,18.78993,18.78993,0,0,0,3.76953,2.84668,21.68494,21.68494,0,0,0,8.30274,2.65674,37.795,37.795,0,0,0,14.417-1.52344,53.4181,53.4181,0,0,0,11.99609-4.96679A45.739,45.739,0,0,0,669.35064,630.972Z" transform="translate(-393.4063 -233.2404)"/><path d="M461.95708,607.72348a79.11416,79.11416,0,0,1-6.67382,23.02734,96.79265,96.79265,0,0,1-5.291,9.98584,28.39565,28.39565,0,0,1-5.88477,7.3042,10.08033,10.08033,0,0,1-2.88574,1.93457,11.56147,11.56147,0,0,1-4.03125.80908,22.80155,22.80155,0,0,1-4.96972-.39648,32.42878,32.42878,0,0,1-5.18848-1.36182,33.31038,33.31038,0,0,1-18.09766-15.31884,34.13025,34.13025,0,0,0,14.874,22.89941,35.56283,35.56283,0,0,0,6.77343,3.4873,26.3491,26.3491,0,0,0,8.043,1.73877,20.28546,20.28546,0,0,0,4.541-.27783,18.78792,18.78792,0,0,0,4.50879-1.40674,21.70623,21.70623,0,0,0,6.99511-5.20263,37.80756,37.80756,0,0,0,7.15723-12.60694,53.43672,53.43672,0,0,0,2.94727-12.6455A45.7285,45.7285,0,0,0,461.95708,607.72348Z" transform="translate(-393.4063 -233.2404)"/></svg>