<?xml version="1.0" standalone="no"?>
<!DOCTYPE svg PUBLIC "-//W3C//DTD SVG 20010904//EN"
 "http://www.w3.org/TR/2001/REC-SVG-20010904/DTD/svg10.dtd">
<svg version="1.0" xmlns="http://www.w3.org/2000/svg"
 width="512.000000pt" height="512.000000pt" viewBox="0 0 512.000000 512.000000"
 preserveAspectRatio="xMidYMid meet">
<metadata>
Created by potrace 1.16, written by Peter Selinger 2001-2019
</metadata>
<g transform="translate(0.000000,512.000000) scale(0.100000,-0.100000)"
fill="#151515" stroke="none">
<path d="M1935 5113 c-60 -14 -232 -71 -314 -105 -796 -331 -1378 -1017 -1561
-1838 -72 -323 -81 -711 -24 -1030 181 -1006 940 -1816 1929 -2059 227 -55
374 -73 625 -72 416 0 797 89 1159 270 665 334 1132 899 1340 1622 48 166 39
238 -35 288 -27 19 -48 24 -92 24 -65 0 -84 -8 -167 -73 -432 -336 -955 -476
-1475 -394 -417 66 -775 247 -1070 543 -162 162 -261 301 -363 506 -263 531
-263 1173 1 1700 54 108 93 172 179 287 68 93 82 132 69 203 -9 45 -57 101
-99 113 -49 15 -80 20 -102 15z m-405 -588 c-111 -247 -180 -591 -180 -896 0
-609 261 -1217 704 -1636 334 -316 737 -514 1207 -594 170 -28 489 -31 666 -6
207 31 441 97 617 176 38 18 71 30 73 28 6 -6 -119 -208 -183 -294 -254 -345
-607 -624 -981 -774 -173 -70 -377 -123 -573 -150 -142 -19 -451 -17 -590 4
-744 114 -1371 572 -1700 1242 -155 316 -230 633 -230 980 0 788 410 1510
1092 1922 57 35 104 63 105 63 1 0 -11 -29 -27 -65z"/>
</g>
</svg>
